<svg width="158" height="158" viewBox="0 0 158 158" fill="none" xmlns="http://www.w3.org/2000/svg">
<path d="M78.582 24C92.7104 24 104.164 35.4537 104.164 49.582V107.418C104.164 121.546 92.7104 133 78.582 133C64.4537 133 53 121.546 53 107.418V49.582C53 35.4537 64.4537 24 78.582 24ZM78.582 98.1494C72.644 98.1494 67.8301 102.963 67.8301 108.901C67.8301 114.839 72.644 119.653 78.582 119.653C84.52 119.653 89.334 114.839 89.334 108.901C89.334 102.963 84.52 98.1494 78.582 98.1494ZM78.582 67.748C72.644 67.7481 67.8301 72.562 67.8301 78.5C67.8301 84.438 72.644 89.2519 78.582 89.252C84.52 89.252 89.334 84.438 89.334 78.5C89.334 72.562 84.52 67.748 78.582 67.748ZM78.582 37.3467C72.644 37.3467 67.8301 42.1606 67.8301 48.0986C67.8301 54.0366 72.644 58.8506 78.582 58.8506C84.52 58.8506 89.334 54.0366 89.334 48.0986C89.334 42.1606 84.52 37.3467 78.582 37.3467Z" fill="url(#paint0_linear_8_71)"/>
<defs>
<linearGradient id="paint0_linear_8_71" x1="60.5" y1="13.5" x2="74.75" y2="147.734" gradientUnits="userSpaceOnUse">
<stop stop-color="#BABABA"/>
<stop offset="1" stop-color="#808080"/>
</linearGradient>
</defs>
</svg>
