<svg width="158" height="158" viewBox="0 0 158 158" fill="none" xmlns="http://www.w3.org/2000/svg">
<path d="M98.082 29C115.755 29 130.082 43.3269 130.082 61V99C130.082 116.673 115.755 131 98.082 131H60.082C42.4089 131 28.082 116.673 28.082 99V61C28.082 43.3269 42.4089 29 60.082 29H98.082ZM78.752 95C72.814 95 68 99.814 68 105.752C68.0001 111.69 72.814 116.504 78.752 116.504C84.6898 116.504 89.5038 111.69 89.5039 105.752C89.5039 99.814 84.6899 95.0001 78.752 95ZM53.752 51C47.814 51 43 55.814 43 61.752C43.0002 67.6898 47.814 72.5029 53.752 72.5029C59.6898 72.5028 64.5038 67.6897 64.5039 61.752C64.5039 55.814 59.6899 51.0001 53.752 51ZM104.555 51C98.6167 51 93.8027 55.814 93.8027 61.752C93.8029 67.6898 98.6168 72.5029 104.555 72.5029C110.492 72.5028 115.306 67.6897 115.307 61.752C115.307 55.814 110.493 51.0001 104.555 51Z" fill="url(#paint0_linear_8_81)"/>
<defs>
<linearGradient id="paint0_linear_8_81" x1="60.5" y1="13.5" x2="74.7499" y2="147.734" gradientUnits="userSpaceOnUse">
<stop stop-color="#BABABA"/>
<stop offset="1" stop-color="#808080"/>
</linearGradient>
</defs>
</svg>
