<svg width="512" height="512" viewBox="0 0 512 512" fill="none" xmlns="http://www.w3.org/2000/svg">
<g clip-path="url(#clip0_48_8)">
<rect x="0.75" y="0.75" width="510.5" height="510.5" stroke="#111111" stroke-width="1.5"/>
<path d="M319.722 457.66C317.58 457.086 316.817 455.652 317.432 453.357L333.223 394.424C333.837 392.129 335.216 391.269 337.358 391.843L350.668 395.409C352.443 395.885 353.385 397.449 353.494 400.102L355.147 443.687C355.23 445.579 355.227 447.119 355.138 448.309C355.057 449.468 354.888 450.833 354.631 452.404L354.906 452.477C355.469 450.989 356.005 449.722 356.515 448.678C357.032 447.603 357.8 446.267 358.818 444.671L382.042 407.751C383.463 405.508 385.061 404.625 386.836 405.1L400.146 408.667C402.288 409.241 403.051 410.675 402.437 412.97L386.645 471.903C386.031 474.198 384.652 475.058 382.51 474.484L375.534 472.615C373.392 472.041 372.628 470.607 373.243 468.312L383.402 430.4C383.894 428.564 384.462 426.749 385.107 424.954L384.786 424.868L359.961 464.458C358.532 466.731 356.884 467.618 355.017 467.118L347.215 465.027C345.348 464.527 344.365 462.935 344.264 460.252L342.56 413.553L342.238 413.467C341.899 415.344 341.484 417.201 340.992 419.036L330.834 456.948C330.219 459.243 328.84 460.103 326.698 459.53L319.722 457.66Z" fill="#DB3838" stroke="#DB3838" stroke-width="0.1"/>
<path d="M206.11 437.527C203.565 437.527 202.292 436.164 202.292 433.436V363.4C202.292 360.673 203.565 359.309 206.11 359.309H221.928C224.037 359.309 225.546 360.764 226.455 363.673L241.237 411.509C241.892 413.582 242.346 415.291 242.601 416.636C242.855 417.945 243.074 419.509 243.255 421.327H243.583C243.765 419.509 243.983 417.945 244.237 416.636C244.492 415.291 244.946 413.582 245.601 411.509L260.383 363.673C261.292 360.764 262.801 359.309 264.91 359.309H280.728C283.274 359.309 284.546 360.673 284.546 363.4V433.436C284.546 436.164 283.274 437.527 280.728 437.527H272.437C269.892 437.527 268.619 436.164 268.619 433.436V388.382C268.619 386.2 268.71 384.018 268.892 381.836H268.51L252.746 433.109C251.837 436.055 250.274 437.527 248.055 437.527H238.783C236.565 437.527 235.001 436.055 234.092 433.109L218.328 381.836H217.946C218.128 384.018 218.219 386.2 218.219 388.382V433.436C218.219 436.164 216.946 437.527 214.401 437.527H206.11Z" fill="white" stroke="white" stroke-width="0.1"/>
<path d="M109.279 437.527C106.661 437.527 105.806 436.327 106.715 433.927L133.442 363.727C134.57 360.782 136.279 359.309 138.57 359.309H146.206C148.497 359.309 150.206 360.782 151.333 363.727L178.061 433.927C178.97 436.327 178.115 437.527 175.497 437.527H166.824C164.424 437.527 162.751 436.273 161.806 433.764L156.242 419.091H128.533L122.97 433.764C122.024 436.273 120.351 437.527 117.951 437.527H109.279ZM133.606 405.564H151.17L144.461 388.218C143.661 386.182 143.17 384.709 142.988 383.8C142.842 382.855 142.679 381.473 142.497 379.655H142.279C142.097 381.473 141.915 382.855 141.733 383.8C141.588 384.709 141.115 386.182 140.315 388.218L133.606 405.564Z" fill="white" stroke="white" stroke-width="0.1"/>
<path d="M313.813 307.2C311.268 307.2 309.995 305.836 309.995 303.109V233.073C309.995 230.345 311.268 228.982 313.813 228.982H339.068C350.304 228.982 358.504 230.727 363.668 234.218C368.831 237.673 371.413 243.309 371.413 251.127C371.413 256.945 369.322 261.582 365.14 265.036C360.959 268.491 355.649 270.782 349.213 271.909V272.018C352.704 273.327 355.34 275.145 357.122 277.473C358.904 279.8 360.359 281.836 361.486 283.582L373.486 302.509C375.486 305.636 374.795 307.2 371.413 307.2H361.922C359.922 307.2 358.286 306.127 357.013 303.982L345.995 285.6C344.795 283.636 342.595 281.491 339.395 279.164C336.231 276.8 333.086 275.618 329.959 275.618H325.922V303.109C325.922 305.836 324.649 307.2 322.104 307.2H313.813ZM325.922 262.091H335.686C342.959 262.091 348.122 261.273 351.177 259.636C354.268 257.964 355.813 255.327 355.813 251.727C355.813 247.8 354.322 245.255 351.34 244.091C348.395 242.891 344.049 242.291 338.304 242.291H325.922V262.091Z" fill="white" stroke="white" stroke-width="0.1"/>
<path d="M214.091 268.091C214.091 255.545 217.273 245.582 223.636 238.2C230 230.818 239.182 227.127 251.182 227.127C258.091 227.127 263.945 228.2 268.745 230.345C273.545 232.491 276.927 235.6 278.891 239.673C280.2 242.364 279.982 244.182 278.236 245.127L271.691 248.618C269.4 249.855 267.509 249.164 266.018 246.545C265.073 244.873 263.309 243.364 260.727 242.018C258.182 240.673 255.182 240 251.727 240C244.091 240 238.745 242.418 235.691 247.255C232.636 252.055 231.109 259 231.109 268.091C231.109 277.182 232.636 284.145 235.691 288.982C238.745 293.782 244.091 296.182 251.727 296.182C255.836 296.182 259.291 295.255 262.091 293.4C264.927 291.545 266.891 289.782 267.982 288.109C269.764 285.382 271.655 284.691 273.655 286.036L280.2 290.4C281.982 291.6 282.164 293.418 280.745 295.855C278.636 299.491 275.018 302.6 269.891 305.182C264.764 307.764 258.527 309.055 251.182 309.055C239.364 309.055 230.218 305.364 223.745 297.982C217.309 290.6 214.091 280.636 214.091 268.091Z" fill="#42AD59" stroke="#42AD59" stroke-width="0.1"/>
<path d="M133.187 301.364C130.933 299.655 130.387 297.927 131.551 296.182L135.751 289.855C137.133 287.782 139.151 287.673 141.805 289.527C143.842 290.945 146.496 292.418 149.769 293.945C153.078 295.436 156.551 296.182 160.187 296.182C162.733 296.182 165.187 295.891 167.551 295.309C169.914 294.727 171.714 293.6 172.951 291.927C174.187 290.255 174.805 288.273 174.805 285.982C174.805 284.345 174.533 282.909 173.987 281.673C173.442 280.436 172.551 279.418 171.314 278.618C170.078 277.818 168.805 277.145 167.496 276.6C165.205 275.655 162.314 274.727 158.823 273.818C155.369 272.873 151.951 271.745 148.569 270.436C145.551 269.273 142.787 267.673 140.278 265.636C137.769 263.6 135.823 261.309 134.442 258.764C133.06 256.218 132.369 252.818 132.369 248.564C132.369 243.509 134.005 239.182 137.278 235.582C140.551 231.982 144.314 229.673 148.569 228.655C152.823 227.636 157.114 227.127 161.442 227.127C165.733 227.127 170.151 227.782 174.696 229.091C179.278 230.4 182.733 232.036 185.06 234C187.351 235.927 187.914 237.673 186.751 239.236L182.333 245.182C180.842 247.218 178.842 247.382 176.333 245.673C174.733 244.582 172.533 243.364 169.733 242.018C166.969 240.673 164.078 240 161.06 240C158.914 240 156.933 240.182 155.114 240.545C153.333 240.909 151.751 241.782 150.369 243.164C148.987 244.545 148.296 246.255 148.296 248.291C148.296 250.255 148.805 251.855 149.823 253.091C150.842 254.291 151.969 255.2 153.205 255.818C154.442 256.4 155.696 256.891 156.969 257.291C160.896 258.564 164.405 259.691 167.496 260.673C170.587 261.618 173.442 262.673 176.06 263.836C179.696 265.473 182.478 267.109 184.405 268.745C186.333 270.382 187.914 272.618 189.151 275.455C190.423 278.291 191.06 281.673 191.06 285.6C191.06 291.418 189.205 296.236 185.496 300.055C181.787 303.836 177.66 306.273 173.114 307.364C168.605 308.491 164.205 309.055 159.914 309.055C153.587 309.055 148.442 308.436 144.478 307.2C140.514 306 136.751 304.055 133.187 301.364Z" fill="white" stroke="white" stroke-width="0.1"/>
<path d="M275.936 176.873C272.542 176.873 270.845 175.055 270.845 171.418V78.0364C270.845 74.4 272.542 72.5818 275.936 72.5818H286.7C290.87 72.5818 294.021 74.2788 296.155 77.6727L333.245 137.236H333.755C333.512 134.327 333.391 131.418 333.391 128.509V78.0364C333.391 74.4 335.088 72.5818 338.482 72.5818H349.536C352.93 72.5818 354.627 74.4 354.627 78.0364V171.418C354.627 175.055 352.93 176.873 349.536 176.873H339.5C335.33 176.873 332.179 175.176 330.045 171.782L292.227 111.127H291.718C291.961 114.036 292.082 116.945 292.082 119.855V171.418C292.082 175.055 290.385 176.873 286.991 176.873H275.936Z" fill="#FFB700"/>
<path d="M148.064 133.455V76.5818C148.064 73.9152 149.761 72.5818 153.155 72.5818H164.21C167.604 72.5818 169.301 73.9152 169.301 76.5818V132.727C169.301 145.818 171.216 154.012 175.046 157.309C178.925 160.558 183.288 162.182 188.137 162.182C192.985 162.182 197.325 160.558 201.155 157.309C205.034 154.012 206.973 145.818 206.973 132.727V76.5818C206.973 73.9152 208.67 72.5818 212.064 72.5818H223.119C226.513 72.5818 228.21 73.9152 228.21 76.5818V133.455C228.21 150.424 224.622 162.327 217.446 169.164C210.27 175.952 200.501 179.345 188.137 179.345C175.773 179.345 166.004 175.952 158.828 169.164C151.652 162.327 148.064 150.424 148.064 133.455Z" fill="#FFB700"/>
</g>
<defs>
<clipPath id="clip0_48_8">
<rect width="512" height="512" fill="white"/>
</clipPath>
</defs>
</svg>
