<svg width="51" height="76" viewBox="0 0 51 76" fill="none" xmlns="http://www.w3.org/2000/svg">
<g clip-path="url(#clip0_6_29)">
<path d="M42.5958 63.8863C42.6817 64.2403 42.7702 64.6748 42.8614 65.1897C42.965 65.6983 43.0613 66.2495 43.1501 66.8433C43.2515 67.4309 43.3438 68.0307 43.4272 68.6428C43.5106 69.2549 43.5889 69.8306 43.6621 70.3699C44.0191 69.9591 44.4004 69.5207 44.8059 69.0548C45.2114 68.5888 45.6129 68.1365 46.0102 67.6979C46.42 67.2531 46.8029 66.8451 47.1588 66.4737C47.5272 66.0962 47.8445 65.783 48.1106 65.5341L50.1933 66.1564C50.1027 66.816 49.9792 67.5503 49.8226 68.3594C49.6786 69.1623 49.509 69.9973 49.3138 70.8645C49.1311 71.7254 48.9372 72.588 48.7322 73.4523C48.537 74.3195 48.3471 75.1335 48.1623 75.8943L45.9329 75.2282C46.1793 74.2967 46.4405 73.28 46.7165 72.1782C46.9924 71.0764 47.2467 69.9582 47.4792 68.8235C47.1885 69.1546 46.866 69.521 46.5117 69.9227C46.1574 70.3244 45.803 70.726 45.4487 71.1277C45.1041 71.5323 44.7699 71.92 44.4461 72.291C44.1249 72.6528 43.8509 72.964 43.6239 73.2246L42.0252 72.7469C41.9784 72.4045 41.92 71.994 41.85 71.5153C41.7827 71.0275 41.7112 70.5184 41.6353 69.9882C41.5691 69.4609 41.4981 68.9322 41.4222 68.402C41.3464 67.8718 41.2777 67.3885 41.2164 66.9522C40.7883 68.0284 40.3874 69.1029 40.0136 70.1754C39.6399 71.248 39.3005 72.2413 38.9955 73.1553L36.7661 72.4891C37.029 71.7517 37.3119 70.9654 37.6146 70.1304C37.9272 69.2982 38.2384 68.4707 38.5482 67.6477C38.8705 66.8185 39.1868 66.0273 39.4971 65.2741C39.8198 64.5147 40.1243 63.8344 40.4104 63.2333L42.5958 63.8863Z" fill="#D23635"/>
<path d="M21.7417 56.3502C21.9862 56.7969 22.2645 57.3518 22.5769 58.015C22.9028 58.6646 23.2355 59.3752 23.575 60.1466C23.9281 60.9045 24.2744 61.6828 24.6139 62.4813C24.9534 63.2798 25.2725 64.031 25.5713 64.7348C25.8701 64.031 26.1892 63.2798 26.5287 62.4813C26.8682 61.6828 27.2077 60.9045 27.5472 60.1466C27.9003 59.3752 28.233 58.6646 28.5453 58.015C28.8713 57.3518 29.1564 56.7969 29.4009 56.3502H32.2934C32.4292 57.2841 32.5515 58.333 32.6601 59.497C32.7823 60.6474 32.8842 61.8519 32.9656 63.1106C33.0607 64.3558 33.1422 65.6077 33.2101 66.8664C33.2916 68.1251 33.3595 69.3094 33.4138 70.4192H30.3175C30.2768 69.0522 30.2225 67.5634 30.1546 65.9529C30.0867 64.3423 29.9848 62.7181 29.849 61.0805C29.6046 61.6489 29.333 62.2783 29.0342 62.9685C28.7355 63.6588 28.4367 64.349 28.1379 65.0393C27.8527 65.7295 27.5744 66.3927 27.3028 67.0288C27.0312 67.6514 26.8003 68.186 26.6102 68.6327H24.3898C24.1997 68.186 23.9688 67.6514 23.6972 67.0288C23.4256 66.3927 23.1405 65.7295 22.8417 65.0393C22.5565 64.349 22.2645 63.6588 21.9658 62.9685C21.667 62.2783 21.3954 61.6489 21.151 61.0805C21.0152 62.7181 20.9133 64.3423 20.8454 65.9529C20.7775 67.5634 20.7232 69.0522 20.6825 70.4192H17.5862C17.6405 69.3094 17.7016 68.1251 17.7695 66.8664C17.851 65.6077 17.9325 64.3558 18.014 63.1106C18.109 61.8519 18.2109 60.6474 18.3195 59.497C18.4418 58.333 18.5708 57.2841 18.7066 56.3502H21.7417Z" fill="white"/>
<path d="M12.057 70.4192C11.8914 69.932 11.7032 69.4312 11.4925 68.9169C11.2968 68.4026 11.1011 67.8883 10.9055 67.374H4.80925C4.61357 67.8883 4.41036 68.4026 4.19963 68.9169C4.00395 69.4312 3.82332 69.932 3.65774 70.4192H1.52588e-05C0.587058 68.9033 1.144 67.5025 1.67083 66.2168C2.19766 64.931 2.70944 63.7197 3.20617 62.5828C3.71795 61.4459 4.21468 60.3699 4.69636 59.3549C5.19309 58.3262 5.70487 57.3247 6.2317 56.3502H9.59591C10.1077 57.3247 10.6119 58.3262 11.1087 59.3549C11.6054 60.3699 12.1021 61.4459 12.5989 62.5828C13.1106 63.7197 13.6299 64.931 14.1568 66.2168C14.6836 67.5025 15.2405 68.9033 15.8276 70.4192H12.057ZM7.83478 59.5376C7.75952 59.7406 7.64662 60.018 7.4961 60.3699C7.34558 60.7218 7.17247 61.1279 6.97679 61.588C6.78111 62.0482 6.56285 62.5557 6.32201 63.1106C6.09623 63.6656 5.86292 64.2475 5.62208 64.8566H10.0701C9.82922 64.2475 9.59591 63.6656 9.37012 63.1106C9.14434 62.5557 8.92608 62.0482 8.71534 61.588C8.51966 61.1279 8.34656 60.7218 8.19604 60.3699C8.04551 60.018 7.92509 59.7406 7.83478 59.5376Z" fill="white"/>
<path d="M38.193 30.7096C40.3878 30.7096 42.069 31.1035 43.2368 31.8914C44.4045 32.6652 44.9883 33.8751 44.9883 35.5212C44.9883 36.5482 44.7492 37.3853 44.2708 38.0325C43.8066 38.6656 43.1312 39.165 42.2449 39.5308C42.5403 39.8966 42.8499 40.3187 43.1735 40.797C43.497 41.2613 43.8136 41.7537 44.1231 42.2743C44.4467 42.7807 44.7562 43.3154 45.0517 43.8781C45.3471 44.4268 45.6214 44.9685 45.8747 45.5031H42.1816C41.9143 45.0247 41.6399 44.5394 41.3586 44.0469C41.0912 43.5545 40.8099 43.0762 40.5144 42.6119C40.233 42.1476 39.9517 41.7115 39.6703 41.3035C39.3889 40.8814 39.1075 40.5016 38.8261 40.1639H37.2012V45.5031H33.909V31.0894C34.6266 30.9487 35.3652 30.8503 36.1249 30.794C36.8987 30.7377 37.5881 30.7096 38.193 30.7096ZM38.383 33.5163C38.1438 33.5163 37.9257 33.5234 37.7288 33.5374C37.5459 33.5515 37.37 33.5656 37.2012 33.5796V37.5471H38.1297C39.3678 37.5471 40.2541 37.3923 40.7888 37.0828C41.3234 36.7733 41.5907 36.2457 41.5907 35.5C41.5907 34.7825 41.3163 34.276 40.7677 33.9806C40.233 33.6711 39.4381 33.5163 38.383 33.5163Z" fill="white"/>
<path d="M26.8935 45.7985C24.5158 45.7985 22.7009 45.1373 21.4488 43.8148C20.2107 42.4923 19.5917 40.6141 19.5917 38.1802C19.5917 36.9703 19.7816 35.894 20.1615 34.9514C20.5414 33.9947 21.0619 33.1927 21.7232 32.5456C22.3844 31.8843 23.1723 31.3849 24.0867 31.0472C25.0012 30.7096 25.9931 30.5407 27.0623 30.5407C27.6814 30.5407 28.2441 30.59 28.7506 30.6885C29.2571 30.7729 29.7003 30.8784 30.0801 31.005C30.46 31.1176 30.7765 31.2372 31.0298 31.3638C31.283 31.4904 31.4659 31.5889 31.5785 31.6592L30.6288 34.3183C30.1786 34.0791 29.651 33.8751 29.046 33.7063C28.4551 33.5374 27.7798 33.453 27.0201 33.453C26.5136 33.453 26.0142 33.5374 25.5218 33.7063C25.0434 33.8751 24.6143 34.1494 24.2345 34.5293C23.8687 34.8951 23.5732 35.3734 23.3481 35.9643C23.123 36.5552 23.0105 37.2727 23.0105 38.1169C23.0105 38.7922 23.0808 39.4253 23.2215 40.0162C23.3763 40.593 23.6154 41.0925 23.939 41.5145C24.2767 41.9366 24.7128 42.2743 25.2474 42.5275C25.782 42.7667 26.4292 42.8863 27.1889 42.8863C27.6673 42.8863 28.0964 42.8581 28.4763 42.8018C28.8561 42.7456 29.1938 42.6823 29.4892 42.6119C29.7847 42.5275 30.0449 42.436 30.27 42.3376C30.4951 42.2391 30.6991 42.1476 30.882 42.0632L31.7895 44.7011C31.3252 44.9825 30.671 45.2358 29.8269 45.4609C28.9827 45.686 28.0049 45.7985 26.8935 45.7985Z" fill="#40A256"/>
<path d="M11.9305 42.9918C12.3948 42.9918 12.7746 42.9566 13.0701 42.8863C13.3796 42.8018 13.6258 42.6963 13.8087 42.5697C13.9916 42.429 14.1182 42.2672 14.1886 42.0843C14.2589 41.9014 14.2941 41.6974 14.2941 41.4723C14.2941 40.994 14.069 40.6 13.6188 40.2905C13.1686 39.9669 12.3948 39.6223 11.2974 39.2565C10.819 39.0876 10.3407 38.8977 9.86235 38.6867C9.38401 38.4616 8.95491 38.1872 8.57504 37.8636C8.19518 37.526 7.88566 37.125 7.64649 36.6607C7.40732 36.1824 7.28773 35.6056 7.28773 34.9303C7.28773 34.2549 7.41435 33.65 7.6676 33.1154C7.92084 32.5667 8.2796 32.1024 8.74387 31.7225C9.20815 31.3427 9.7709 31.0543 10.4321 30.8573C11.0934 30.6463 11.839 30.5407 12.6691 30.5407C13.6539 30.5407 14.5051 30.6463 15.2226 30.8573C15.9401 31.0683 16.531 31.3005 16.9953 31.5537L16.0457 34.1494C15.6377 33.9384 15.1804 33.7555 14.6739 33.6007C14.1815 33.4319 13.5836 33.3475 12.8801 33.3475C12.0923 33.3475 11.5225 33.4601 11.1708 33.6852C10.8331 33.8962 10.6643 34.2268 10.6643 34.677C10.6643 34.9443 10.7276 35.1694 10.8542 35.3523C10.9808 35.5352 11.1567 35.704 11.3818 35.8588C11.621 35.9995 11.8883 36.1332 12.1837 36.2598C12.4932 36.3723 12.8309 36.4919 13.1967 36.6185C13.9564 36.8999 14.6177 37.1813 15.1804 37.4627C15.7432 37.73 16.2075 38.0465 16.5732 38.4123C16.9531 38.7781 17.2345 39.2072 17.4174 39.6996C17.6003 40.192 17.6917 40.79 17.6917 41.4934C17.6917 42.8581 17.2134 43.9203 16.2567 44.68C15.3 45.4257 13.8579 45.7985 11.9305 45.7985C11.2833 45.7985 10.6995 45.7563 10.1789 45.6719C9.65835 45.6016 9.19408 45.5101 8.78608 45.3976C8.39215 45.285 8.04746 45.1654 7.75201 45.0388C7.47063 44.9122 7.23146 44.7926 7.03449 44.68L7.96304 42.0632C8.39918 42.3024 8.9338 42.5205 9.5669 42.7174C10.2141 42.9003 11.0019 42.9918 11.9305 42.9918Z" fill="white"/>
<path d="M40.4515 19.989C39.2533 17.7928 37.9568 15.6242 36.5619 13.4833C35.167 11.3424 33.6827 9.32149 32.109 7.42053V19.989H27.978V0.804079H31.3848C31.9749 1.41312 32.6276 2.16059 33.343 3.04647C34.0583 3.93236 34.7825 4.88284 35.5158 5.89792C36.2668 6.89454 37.009 7.9373 37.7422 9.0262C38.4754 10.0966 39.1639 11.1302 39.8077 12.1268V0.804079H43.9655V19.989H40.4515Z" fill="#FDAF31"/>
<path d="M16.7163 19.989C15.3441 19.989 14.1599 19.8081 13.1636 19.4463C12.1673 19.0664 11.3402 18.5508 10.6823 17.8996C10.0432 17.2302 9.56381 16.4433 9.24425 15.5388C8.94349 14.6162 8.79311 13.6031 8.79311 12.4996V0.804079H13.1918V12.1468C13.1918 12.9066 13.2764 13.5579 13.4455 14.1006C13.6335 14.6252 13.8779 15.0594 14.1786 15.4031C14.4982 15.7287 14.8742 15.9639 15.3065 16.1086C15.7577 16.2533 16.2464 16.3257 16.7727 16.3257C17.8442 16.3257 18.7089 16.0091 19.3668 15.376C20.0435 14.7428 20.3819 13.6664 20.3819 12.1468V0.804079H24.7806V12.4996C24.7806 13.6031 24.6208 14.6162 24.3012 15.5388C23.9817 16.4614 23.4929 17.2574 22.835 17.9267C22.1771 18.578 21.3406 19.0845 20.3255 19.4463C19.3104 19.8081 18.1074 19.989 16.7163 19.989Z" fill="#FDAF31"/>
</g>
<defs>
<clipPath id="clip0_6_29">
<rect width="51" height="76" fill="white"/>
</clipPath>
</defs>
</svg>
