<svg width="158" height="158" viewBox="0 0 158 158" fill="none" xmlns="http://www.w3.org/2000/svg">
<path fill-rule="evenodd" clip-rule="evenodd" d="M49.0985 33.7489C59.508 28.3053 71.4926 26.6613 82.9842 29.1005L84.0946 29.3485L84.1112 29.3534L84.1278 29.3573L85.2001 29.6229L85.2176 29.6278L85.2342 29.6317C96.6018 32.5937 106.583 39.4283 113.456 48.9559L114.111 49.8856L114.121 49.9013L114.132 49.9159L114.746 50.8339L114.756 50.8475L114.765 50.8612C119.305 57.8042 122.032 65.7129 122.783 73.872L127.769 69.5663L127.839 69.5057L127.912 69.4501C130.107 67.7781 133.244 68.1988 134.919 70.3964L135.07 70.6054C136.539 72.7512 136.113 75.6797 134.078 77.3182L134.079 77.3192L120.726 88.4862L120.674 88.5302L120.619 88.5722C118.462 90.2151 115.398 89.8342 113.704 87.7391L100.89 72.9345L100.829 72.8641L100.772 72.789C99.0986 70.5919 99.5239 67.4552 101.72 65.7821L101.929 65.6307C104.062 64.1703 106.969 64.582 108.613 66.5878L112.21 70.5556C111.204 65.5241 109.246 60.692 106.396 56.3349L105.851 55.5233C100.33 47.5085 92.1115 41.7576 82.7128 39.3085L81.7811 39.078C72.3014 36.8462 62.3451 38.1069 53.7333 42.6102L52.8934 43.0624C44.0943 47.9307 37.4206 55.8989 34.1717 65.4159L33.868 66.3436C30.9562 75.5964 31.4587 85.5998 35.3055 94.5272L35.7049 95.4208L36.0946 96.244C40.2139 104.696 47.1577 111.472 55.7538 115.376L56.6161 115.755C65.5613 119.569 75.5924 120.04 84.8719 117.063L85.7655 116.766L86.6229 116.458C95.4354 113.179 102.854 106.926 107.574 98.7499L107.708 98.5302C109.098 96.3809 111.899 95.631 114.178 96.7968L114.404 96.9198L114.624 97.0546C116.773 98.4453 117.523 101.246 116.357 103.524L116.234 103.75C110.158 114.274 100.499 122.242 89.0419 126.214L89.0253 126.219L89.0096 126.224L87.9442 126.58L87.9276 126.586C76.3566 130.298 63.8475 129.71 52.6932 124.954L51.619 124.48C40.5546 119.456 31.685 110.616 26.619 99.5995L26.6122 99.5839L26.6053 99.5692L26.1551 98.5604L26.1473 98.5438L26.1405 98.5272C21.3215 87.3716 20.6918 74.8642 24.3417 63.3007L24.3465 63.2841L24.3514 63.2684L24.6962 62.2186L24.702 62.202L24.7079 62.1845C28.7605 50.3134 37.0869 40.3752 48.0643 34.3056L48.0799 34.2968L48.0946 34.289L49.0682 33.7655L49.0829 33.7577L49.0985 33.7489Z" fill="url(#paint0_linear_8_55)"/>
<defs>
<linearGradient id="paint0_linear_8_55" x1="42.5" y1="20" x2="106.161" y2="133.223" gradientUnits="userSpaceOnUse">
<stop stop-color="#BABABA"/>
<stop offset="1" stop-color="#808080"/>
</linearGradient>
</defs>
</svg>
